<svg viewBox="0 0 1024 1024">
    <path d="M808.6 339.3c-12 0-21.7 9.7-21.7 21.7v496.2c0 32.8-26.6 59.3-59.3 59.3H296.8c-32.8 0-59.3-26.6-59.3-59.3V361c0-12-9.7-21.7-21.7-21.7s-21.7 9.7-21.7 21.7v496.2C194 914 240.1 960 296.7 960h430.6C784 960 830 914 830 857.3V361c0.3-12-9.4-21.7-21.4-21.7zM897.9 238H749.1V127.8c0-35.2-28.7-63.8-63.8-63.8H339.9c-35.2 0-63.8 28.7-63.8 63.8v110.3H125.7c-12 0-21.7 9.7-21.7 21.7s9.7 21.7 21.7 21.7h772.1c12 0 21.7-9.7 21.7-21.7 0.1-12.1-9.6-21.8-21.6-21.8zM319.5 127.8c0-11.3 9.1-20.4 20.4-20.4h345.3c11.3 0 20.4 9.1 20.4 20.4V238H319.5V127.8z m0 0" p-id="3848"></path>
    <path d="M615.8 774.4c12 0 21.7-9.7 21.7-21.7V359.5c0-12-9.7-21.7-21.7-21.7s-21.7 9.7-21.7 21.7v393.2c0.1 12 9.8 21.7 21.7 21.7z m-209.1 0c12 0 21.7-9.7 21.7-21.7V359.5c0-12-9.7-21.7-21.7-21.7s-21.7 9.7-21.7 21.7v393.2c0 12 9.7 21.7 21.7 21.7z m0 0" p-id="3849"></path>
</svg>